<svg width="100%" height="100%" viewBox="0.964731 -1.155 147.418 41.4308" version="1.1" xmlns="http://www.w3.org/2000/svg" xmlns:xlink="http://www.w3.org/1999/xlink" xmlns:t="http://www.tagul.com/schema">
  <t:styleOptions>
    <t:backgroundColor>FFFFFF</t:backgroundColor>
    <t:backgroundColorAlpha>0</t:backgroundColorAlpha>
    <t:animationSpeed>0.200000002980232</t:animationSpeed>
    <t:textColor>FFFFFF</t:textColor>
    <t:textAlpha>1</t:textAlpha>
    <t:boxColor>000000</t:boxColor>
    <t:boxAlpha>0.699999988079071</t:boxAlpha>
    <t:zoom>1</t:zoom>
    <t:rotate>1</t:rotate>
    <t:openLinksInNewWindow>1</t:openLinksInNewWindow>
  </t:styleOptions>
  <style type="text/css">svg { background-color: #FFFFFF; } rect { opacity: 0; }</style>
  <defs>
    <symbol overflow="visible" id="f20g111">
      <path d="M 526 -239 Q 526 -128 459 -59 Q 392 9 283 9 Q 171 9 104 -59 Q 37 -128 37 -241 Q 37 -271 43 -302 Q 49 -333 66 -368 Q 84 -404 110 -431 Q 136 -458 180 -476 Q 224 -494 279 -494 Q 336 -494 380 -476 Q 425 -458 451 -431 Q 478 -404 495 -368 Q 513 -333 519 -301 Q 526 -269 526 -239 M 424 -234 Q 424 -337 385 -395 Q 347 -454 280 -454 Q 216 -454 177 -396 Q 139 -339 139 -243 Q 139 -142 177 -86 Q 215 -31 284 -31 Q 350 -31 387 -85 Q 424 -139 424 -234 "/>
    </symbol>
    <symbol overflow="visible" id="f20g112">
      <path d="M 583 -245 Q 583 -137 519 -64 Q 455 9 360 9 Q 269 9 202 -42 L 202 113 Q 202 154 216 173 Q 231 193 264 196 L 289 198 L 289 228 L 20 228 L 20 198 L 45 196 Q 78 193 92 173 Q 107 154 107 113 L 107 -350 Q 107 -395 93 -412 Q 80 -429 41 -433 L 20 -435 L 20 -465 Q 97 -472 168 -485 L 202 -485 L 202 -419 Q 268 -494 365 -494 Q 465 -494 524 -420 Q 583 -346 583 -245 M 481 -233 Q 481 -331 441 -390 Q 401 -449 334 -449 Q 262 -449 202 -369 L 202 -91 Q 260 -36 335 -36 Q 398 -36 439 -92 Q 481 -148 481 -233 "/>
    </symbol>
    <symbol overflow="visible" id="f20g116">
      <path d="M 388 -61 Q 334 9 247 9 Q 211 9 181 0 Q 151 -10 127 -40 Q 104 -70 104 -117 L 104 -452 L 20 -452 L 20 -485 Q 94 -488 128 -531 Q 162 -575 161 -667 L 199 -667 L 199 -485 L 342 -485 L 342 -452 L 199 -452 L 199 -163 Q 199 -31 274 -31 Q 316 -31 361 -83 L 388 -61 "/>
    </symbol>
    <symbol overflow="visible" id="f20g105">
      <path d="M 288 0 L 20 0 L 20 -30 L 45 -32 Q 78 -36 92 -55 Q 107 -74 107 -115 L 107 -350 Q 107 -395 93 -412 Q 80 -429 41 -433 L 21 -435 L 21 -465 Q 83 -470 168 -485 L 202 -485 L 202 -115 Q 202 -74 216 -55 Q 230 -36 264 -32 L 288 -30 L 288 0 M 193 -671 Q 211 -654 211 -630 Q 211 -606 193 -588 Q 176 -571 152 -571 Q 128 -571 110 -588 Q 93 -606 93 -630 Q 93 -655 110 -672 Q 128 -689 153 -689 Q 176 -689 193 -671 "/>
    </symbol>
    <symbol overflow="visible" id="f20g110">
      <path d="M 649 0 L 380 0 L 380 -30 L 405 -32 Q 438 -36 452 -55 Q 467 -74 467 -115 L 467 -346 Q 467 -446 382 -446 Q 298 -446 205 -362 L 205 -115 Q 205 -74 219 -55 Q 234 -36 267 -32 L 292 -30 L 292 0 L 23 0 L 23 -30 L 48 -32 Q 81 -36 95 -55 Q 110 -74 110 -115 L 110 -350 Q 110 -395 96 -412 Q 82 -430 44 -433 L 20 -435 L 20 -465 Q 96 -470 171 -485 L 205 -485 L 205 -406 Q 258 -453 306 -473 Q 354 -494 411 -494 Q 482 -494 522 -459 Q 562 -424 562 -362 L 562 -115 Q 562 -74 576 -55 Q 591 -36 624 -32 L 649 -30 L 649 0 "/>
    </symbol>
    <symbol overflow="visible" id="f20g115">
      <path d="M 487 -153 Q 487 -83 428 -37 Q 369 9 279 9 Q 230 9 194 -3 Q 158 -15 118 -46 L 107 -4 L 74 -4 L 40 -182 L 74 -182 Q 93 -129 116 -103 Q 144 -69 186 -50 Q 229 -31 276 -31 Q 331 -31 368 -57 Q 405 -84 405 -123 Q 405 -170 332 -189 L 204 -221 Q 125 -241 90 -271 Q 55 -301 55 -348 Q 55 -409 108 -451 Q 161 -494 238 -494 Q 319 -494 381 -445 L 391 -481 L 419 -481 L 451 -327 L 419 -327 Q 394 -386 347 -420 Q 301 -454 244 -454 Q 200 -454 171 -432 Q 143 -411 143 -379 Q 143 -363 149 -352 Q 156 -341 170 -334 Q 184 -327 194 -323 Q 204 -320 221 -316 L 360 -282 Q 425 -266 456 -235 Q 487 -204 487 -153 "/>
    </symbol>
    <symbol overflow="visible" id="f20g99">
      <path d="M 498 -108 Q 423 9 283 9 Q 173 9 105 -60 Q 37 -130 37 -242 Q 37 -272 43 -303 Q 50 -334 67 -369 Q 84 -404 110 -431 Q 137 -458 181 -476 Q 225 -494 281 -494 Q 376 -494 430 -449 Q 485 -405 485 -357 Q 485 -334 470 -318 Q 456 -302 434 -302 Q 412 -302 397 -316 Q 383 -331 383 -353 L 384 -388 Q 384 -414 354 -434 Q 324 -454 285 -454 Q 230 -454 195 -418 Q 161 -383 150 -338 Q 139 -293 139 -238 Q 139 -145 186 -88 Q 234 -31 311 -31 Q 357 -31 392 -52 Q 427 -73 469 -126 L 498 -108 "/>
    </symbol>
    <symbol overflow="visible" id="f20g97">
      <path d="M 587 -30 Q 547 9 484 9 Q 399 9 372 -68 Q 322 -26 280 -8 Q 239 9 189 9 Q 122 9 78 -26 Q 35 -61 35 -115 Q 35 -241 292 -275 Q 309 -277 372 -284 L 372 -364 Q 372 -405 340 -429 Q 309 -454 256 -454 Q 214 -454 184 -439 Q 155 -424 155 -402 L 156 -374 Q 156 -353 141 -338 Q 126 -323 105 -323 Q 85 -323 71 -336 Q 57 -349 57 -367 Q 57 -404 91 -434 Q 126 -464 175 -479 Q 225 -494 275 -494 Q 309 -494 340 -487 Q 371 -481 401 -465 Q 431 -450 449 -419 Q 467 -389 467 -346 L 467 -134 Q 467 -115 467 -104 Q 468 -94 471 -79 Q 474 -64 479 -56 Q 485 -48 496 -42 Q 507 -36 523 -36 Q 545 -36 568 -56 L 587 -30 M 372 -113 L 372 -249 Q 259 -239 198 -207 Q 137 -175 137 -125 Q 137 -89 162 -64 Q 188 -39 224 -39 Q 294 -39 372 -113 "/>
    </symbol>
    <symbol overflow="visible" id="f20g108">
      <path d="M 286 0 L 20 0 L 20 -30 L 44 -32 Q 78 -36 92 -55 Q 106 -74 106 -115 L 106 -538 Q 106 -605 94 -625 Q 82 -646 41 -650 L 20 -652 L 20 -683 Q 99 -692 161 -717 L 201 -717 L 201 -115 Q 201 -74 215 -55 Q 229 -36 263 -32 L 286 -30 L 286 0 "/>
    </symbol>
    <symbol overflow="visible" id="f20g73">
      <path d="M 301 0 L 31 0 L 31 -31 L 51 -34 Q 92 -41 104 -61 Q 116 -82 116 -144 L 116 -537 Q 116 -599 104 -619 Q 92 -640 51 -647 L 31 -650 L 31 -681 L 301 -681 L 301 -650 L 281 -647 Q 240 -640 228 -619 Q 216 -599 216 -537 L 216 -144 Q 216 -82 228 -61 Q 240 -41 281 -34 L 301 -31 L 301 0 "/>
    </symbol>
    <symbol overflow="visible" id="f20g66">
      <path d="M 702 -201 Q 702 -178 697 -158 Q 693 -138 682 -113 Q 671 -89 649 -70 Q 627 -51 594 -34 Q 562 -18 511 -9 Q 460 0 396 0 L 31 0 L 31 -31 L 56 -34 Q 95 -39 108 -61 Q 121 -83 121 -144 L 121 -537 Q 121 -598 108 -620 Q 95 -642 56 -647 L 31 -650 L 31 -681 L 383 -681 Q 446 -681 494 -673 Q 542 -666 582 -649 Q 622 -632 643 -599 Q 664 -566 664 -519 Q 664 -487 650 -461 Q 636 -436 619 -422 Q 603 -409 577 -398 Q 552 -387 542 -384 Q 532 -382 519 -379 Q 606 -357 647 -322 Q 702 -275 702 -201 M 562 -516 Q 562 -642 356 -642 Q 270 -642 245 -626 Q 221 -611 221 -557 L 221 -393 L 337 -393 Q 457 -393 509 -421 Q 562 -450 562 -516 M 589 -206 Q 589 -240 581 -265 Q 573 -290 555 -305 Q 537 -321 518 -330 Q 500 -339 467 -343 Q 434 -348 408 -349 Q 383 -350 339 -350 L 221 -350 L 221 -154 Q 221 -119 223 -103 Q 226 -87 238 -70 Q 250 -53 277 -47 Q 304 -41 351 -41 Q 462 -41 525 -77 Q 589 -114 589 -206 "/>
    </symbol>
    <symbol overflow="visible" id="f20g77">
      <path d="M 894 0 L 614 0 L 614 -31 L 639 -34 Q 678 -39 691 -61 Q 704 -83 704 -144 L 704 -610 L 453 0 L 408 0 L 179 -622 L 179 -144 Q 179 -83 192 -60 Q 206 -38 244 -34 L 279 -31 L 279 0 L 26 0 L 26 -31 L 57 -34 Q 95 -38 108 -60 Q 122 -83 122 -144 L 122 -537 Q 122 -598 109 -620 Q 96 -642 57 -647 L 32 -650 L 32 -681 L 265 -681 L 457 -166 L 666 -681 L 894 -681 L 894 -650 L 869 -647 Q 830 -642 817 -620 Q 804 -598 804 -537 L 804 -144 Q 804 -83 817 -61 Q 830 -39 869 -34 L 894 -31 L 894 0 "/>
    </symbol>
    <symbol overflow="visible" id="f20g88">
      <path d="M 755 0 L 427 0 L 427 -31 Q 469 -37 488 -45 Q 507 -54 508 -73 Q 509 -92 484 -125 L 344 -312 L 191 -122 Q 166 -89 184 -61 Q 202 -33 252 -31 L 252 0 L -30 0 L -30 -31 Q 33 -51 69 -77 Q 105 -103 156 -166 L 314 -353 L 142 -572 Q 111 -613 85 -629 Q 59 -645 16 -650 L 16 -681 L 326 -681 L 326 -650 Q 268 -648 253 -626 Q 238 -604 267 -572 L 391 -410 L 508 -560 Q 536 -594 525 -621 Q 514 -649 458 -650 L 458 -681 L 727 -681 L 727 -650 Q 668 -640 637 -619 Q 606 -599 550 -532 L 419 -371 L 611 -121 Q 647 -73 675 -55 Q 704 -37 755 -31 L 755 0 "/>
    </symbol>
    <symbol overflow="visible" id="f20g76">
      <path d="M 629 -214 L 549 0 L 31 0 L 31 -31 L 56 -34 Q 95 -39 108 -61 Q 121 -83 121 -144 L 121 -537 Q 121 -598 108 -620 Q 95 -642 56 -647 L 31 -650 L 31 -681 L 318 -681 L 318 -650 L 286 -647 Q 248 -643 234 -620 Q 221 -598 221 -537 L 221 -123 Q 221 -80 237 -59 Q 254 -38 307 -38 Q 402 -38 491 -105 Q 541 -142 601 -227 L 629 -214 "/>
    </symbol>
    <symbol overflow="visible" id="f20g70">
      <path d="M 654 -510 L 622 -494 Q 557 -572 490 -605 Q 424 -639 333 -639 Q 293 -639 270 -633 Q 247 -628 236 -613 Q 226 -598 223 -583 Q 221 -569 221 -541 L 221 -385 L 287 -385 Q 361 -385 384 -411 Q 408 -437 416 -510 L 447 -510 L 447 -214 L 416 -214 Q 407 -280 382 -311 Q 358 -342 287 -342 L 221 -342 L 221 -144 Q 221 -83 234 -60 Q 248 -38 286 -34 L 319 -31 L 319 0 L 31 0 L 31 -31 L 56 -34 Q 95 -39 108 -61 Q 121 -83 121 -144 L 121 -537 Q 121 -598 108 -620 Q 95 -642 56 -647 L 31 -650 L 31 -681 L 582 -681 L 654 -510 "/>
    </symbol>
    <symbol overflow="visible" id="f20g67">
      <path d="M 702 -159 Q 591 13 397 13 Q 246 13 145 -87 Q 44 -187 44 -337 Q 44 -421 76 -491 Q 109 -562 159 -604 Q 209 -647 265 -670 Q 321 -694 373 -694 Q 495 -694 579 -630 L 600 -672 L 633 -672 L 681 -431 L 649 -431 Q 631 -468 621 -485 Q 612 -503 593 -534 Q 575 -565 558 -580 Q 541 -596 516 -613 Q 491 -631 460 -638 Q 429 -646 392 -646 Q 293 -646 227 -558 Q 162 -471 162 -338 Q 162 -258 186 -196 Q 211 -135 250 -101 Q 289 -68 330 -51 Q 372 -35 412 -35 Q 434 -35 459 -40 Q 484 -46 519 -60 Q 554 -74 591 -105 Q 628 -137 659 -183 L 702 -159 "/>
    </symbol>
    <symbol overflow="visible" id="f20g104">
      <path d="M 643 0 L 374 0 L 374 -30 L 399 -32 Q 432 -36 446 -55 Q 461 -74 461 -115 L 461 -345 Q 461 -446 375 -446 Q 288 -446 202 -364 L 202 -115 Q 202 -74 216 -55 Q 231 -36 264 -32 L 289 -30 L 289 0 L 20 0 L 20 -30 L 45 -32 Q 78 -36 92 -55 Q 107 -74 107 -115 L 107 -538 Q 107 -605 95 -625 Q 83 -646 42 -650 L 20 -652 L 20 -683 Q 99 -692 162 -717 L 202 -717 L 202 -411 Q 298 -494 399 -494 Q 444 -494 475 -482 Q 507 -471 522 -457 Q 538 -443 546 -420 Q 554 -397 555 -384 Q 556 -371 556 -351 L 556 -115 Q 556 -74 570 -55 Q 585 -36 618 -32 L 643 -30 L 643 0 "/>
    </symbol>
    <symbol overflow="visible" id="f20g103">
      <path d="M 542 -520 Q 542 -504 531 -493 Q 520 -482 504 -482 Q 490 -482 475 -491 Q 460 -501 451 -501 Q 427 -501 398 -458 Q 481 -402 481 -316 Q 481 -289 471 -262 Q 461 -235 438 -208 Q 416 -181 372 -164 Q 329 -148 271 -148 Q 226 -148 177 -164 Q 131 -140 131 -111 Q 131 -79 196 -70 L 387 -44 Q 419 -40 439 -34 Q 459 -29 485 -16 Q 511 -4 524 20 Q 538 44 538 79 Q 538 153 465 197 Q 392 241 271 241 Q 159 241 88 207 Q 17 173 17 119 Q 17 82 41 56 Q 66 31 122 10 Q 49 -16 49 -74 Q 49 -142 147 -174 Q 66 -229 66 -316 Q 66 -390 126 -442 Q 186 -494 272 -494 Q 313 -494 366 -474 Q 413 -563 488 -563 Q 512 -563 527 -551 Q 542 -539 542 -520 M 274 -180 Q 379 -180 379 -321 Q 379 -462 277 -462 Q 225 -462 196 -425 Q 168 -388 168 -322 Q 168 -180 274 -180 M 468 111 Q 468 82 444 66 Q 420 51 365 44 L 160 19 Q 77 50 77 109 Q 77 151 131 177 Q 185 204 271 204 Q 376 204 422 175 Q 468 146 468 111 "/>
    </symbol>
    <symbol overflow="visible" id="f20g65">
      <path d="M 714 0 L 433 0 L 433 -31 Q 494 -40 506 -59 Q 519 -78 501 -124 L 451 -253 L 193 -253 L 161 -167 Q 149 -136 144 -115 Q 140 -95 145 -77 Q 150 -59 167 -47 Q 181 -38 231 -31 L 231 0 L -37 0 L -37 -31 L -26 -33 Q 24 -43 49 -77 Q 74 -111 124 -240 L 296 -681 L 389 -681 L 601 -145 Q 628 -76 646 -57 Q 665 -39 714 -31 L 714 0 M 433 -296 L 319 -596 L 208 -296 L 433 -296 "/>
    </symbol>
    <symbol overflow="visible" id="f20g80">
      <path d="M 613 -490 Q 613 -457 602 -426 Q 591 -395 565 -362 Q 540 -330 487 -310 Q 435 -291 362 -291 L 221 -291 L 221 -144 Q 221 -83 234 -60 Q 248 -37 286 -34 L 323 -31 L 323 0 L 31 0 L 31 -31 L 56 -34 Q 95 -39 108 -61 Q 121 -83 121 -144 L 121 -537 Q 121 -598 108 -620 Q 95 -642 56 -647 L 31 -650 L 31 -681 L 363 -681 Q 479 -681 546 -629 Q 613 -578 613 -490 M 511 -487 Q 511 -639 335 -639 Q 263 -639 242 -627 Q 221 -615 221 -575 L 221 -334 L 346 -334 Q 393 -334 427 -348 Q 462 -363 479 -387 Q 496 -411 503 -435 Q 511 -460 511 -487 "/>
    </symbol>
    <symbol overflow="visible" id="f20g71">
      <path d="M 778 -293 L 760 -290 Q 734 -285 722 -278 Q 710 -271 702 -248 Q 695 -225 695 -180 L 695 0 L 648 0 L 616 -69 Q 510 13 389 13 Q 241 13 142 -89 Q 44 -191 44 -343 Q 44 -449 94 -531 Q 144 -613 219 -653 Q 295 -694 379 -694 Q 486 -694 574 -633 L 594 -681 L 625 -681 L 686 -469 L 648 -458 Q 586 -545 543 -582 Q 466 -646 385 -646 Q 285 -646 223 -561 Q 162 -476 162 -336 Q 162 -201 228 -118 Q 295 -35 403 -35 Q 432 -35 463 -42 Q 494 -50 527 -67 Q 561 -85 582 -119 Q 603 -154 603 -200 Q 603 -246 581 -266 Q 560 -287 505 -294 L 505 -324 L 778 -324 L 778 -293 "/>
    </symbol>
    <symbol overflow="visible" id="f20g68">
      <path d="M 752 -335 Q 752 0 336 0 L 31 0 L 31 -31 L 56 -34 Q 95 -39 108 -61 Q 121 -83 121 -144 L 121 -537 Q 121 -598 108 -620 Q 95 -642 56 -647 L 31 -650 L 31 -681 L 336 -681 Q 441 -681 519 -656 Q 598 -632 641 -596 Q 684 -561 710 -511 Q 737 -462 744 -421 Q 752 -380 752 -335 M 634 -342 Q 634 -384 626 -423 Q 619 -462 598 -502 Q 577 -543 545 -572 Q 513 -602 460 -621 Q 408 -640 340 -640 Q 297 -640 271 -634 Q 246 -629 235 -614 Q 225 -600 223 -589 Q 221 -578 221 -554 Q 221 -550 221 -548 L 221 -129 Q 221 -103 224 -89 Q 227 -76 238 -63 Q 249 -51 273 -46 Q 298 -41 339 -41 Q 423 -41 484 -69 Q 545 -97 576 -143 Q 607 -190 620 -239 Q 634 -288 634 -342 "/>
    </symbol>
    <symbol overflow="visible" id="f20g69">
      <path d="M 705 -213 L 614 0 L 31 0 L 31 -31 L 56 -34 Q 95 -39 108 -61 Q 121 -83 121 -144 L 121 -537 Q 121 -598 108 -620 Q 95 -642 56 -647 L 31 -650 L 31 -681 L 602 -681 L 671 -501 L 639 -488 Q 570 -572 503 -605 Q 437 -638 335 -638 Q 269 -638 245 -620 Q 221 -603 221 -555 L 221 -385 L 297 -385 Q 361 -385 384 -409 Q 408 -434 418 -512 L 452 -512 L 452 -213 L 418 -213 Q 411 -283 382 -312 Q 354 -342 295 -342 L 221 -342 L 221 -131 Q 221 -82 243 -62 Q 266 -43 334 -43 Q 446 -43 519 -82 Q 592 -122 674 -227 L 705 -213 "/>
    </symbol>
    <symbol overflow="visible" id="f20g117">
      <path d="M 653 0 L 471 0 L 471 -84 Q 407 -32 360 -11 Q 313 9 259 9 Q 195 9 152 -25 Q 110 -59 110 -141 L 110 -350 Q 110 -395 96 -412 Q 82 -430 44 -433 L 20 -435 L 20 -465 Q 110 -471 171 -485 L 205 -485 L 205 -149 Q 205 -92 227 -65 Q 249 -39 296 -39 Q 371 -39 471 -127 L 471 -350 Q 471 -395 457 -412 Q 443 -430 405 -433 L 381 -435 L 381 -465 Q 477 -472 532 -485 L 566 -485 L 566 -115 Q 566 -74 580 -55 Q 595 -36 628 -32 L 653 -30 L 653 0 "/>
    </symbol>
    <symbol overflow="visible" id="f20g79">
      <path d="M 758 -338 Q 758 -255 726 -187 Q 695 -119 643 -76 Q 592 -33 529 -10 Q 466 13 400 13 Q 248 13 146 -89 Q 44 -192 44 -343 Q 44 -490 148 -592 Q 253 -694 404 -694 Q 558 -694 658 -593 Q 758 -493 758 -338 M 640 -332 Q 640 -477 576 -561 Q 512 -646 402 -646 Q 293 -646 227 -563 Q 162 -480 162 -342 Q 162 -202 227 -118 Q 292 -35 401 -35 Q 510 -35 575 -116 Q 640 -197 640 -332 "/>
    </symbol>
    <symbol overflow="visible" id="f20g114">
      <path d="M 447 -438 Q 447 -414 431 -398 Q 415 -383 390 -383 Q 363 -383 339 -401 Q 316 -416 297 -416 Q 255 -416 205 -360 L 205 -115 Q 205 -74 219 -55 Q 234 -36 267 -32 L 292 -30 L 292 0 L 23 0 L 23 -30 L 48 -32 Q 81 -36 95 -55 Q 110 -74 110 -115 L 110 -350 Q 110 -395 96 -412 Q 82 -430 44 -433 L 20 -435 L 20 -465 Q 96 -470 171 -485 L 205 -485 L 205 -405 Q 209 -408 234 -430 Q 260 -452 274 -462 Q 288 -472 316 -483 Q 345 -494 374 -494 Q 406 -494 426 -478 Q 447 -463 447 -438 "/>
    </symbol>
    <symbol overflow="visible" id="f20g101">
      <path d="M 491 -116 Q 418 9 284 9 Q 221 9 171 -15 Q 122 -39 94 -77 Q 66 -116 51 -159 Q 37 -203 37 -247 Q 37 -355 103 -424 Q 170 -494 273 -494 Q 305 -494 339 -484 Q 373 -475 409 -453 Q 445 -432 468 -389 Q 491 -346 491 -289 L 144 -289 Q 144 -168 181 -102 Q 219 -36 314 -36 Q 406 -36 458 -132 L 491 -116 M 387 -329 L 387 -332 Q 388 -350 381 -375 Q 374 -401 345 -427 Q 316 -454 269 -454 Q 211 -454 184 -420 Q 157 -387 147 -329 L 387 -329 "/>
    </symbol>
    <symbol overflow="visible" id="f20g107">
      <path d="M 628 0 L 358 0 L 358 -30 L 385 -32 Q 403 -34 410 -43 Q 417 -52 413 -65 Q 410 -78 403 -90 Q 397 -103 388 -115 L 283 -267 L 202 -198 L 202 -115 Q 202 -75 216 -55 Q 231 -36 263 -32 L 289 -30 L 289 0 L 20 0 L 20 -30 L 45 -32 Q 78 -36 92 -55 Q 107 -74 107 -115 L 107 -538 Q 107 -605 95 -625 Q 83 -646 42 -650 L 20 -652 L 20 -683 Q 99 -692 162 -717 L 202 -717 L 202 -249 L 358 -385 Q 385 -408 385 -424 Q 385 -452 329 -456 L 329 -485 L 595 -485 L 595 -455 Q 530 -445 489 -426 Q 449 -408 403 -368 L 358 -328 L 507 -115 Q 561 -44 628 -32 L 628 0 "/>
    </symbol>
    <symbol overflow="visible" id="f20g83">
      <path d="M 634 -202 Q 634 -112 553 -49 Q 473 13 356 13 Q 238 13 149 -50 L 130 0 L 93 0 L 28 -229 L 65 -241 Q 117 -141 191 -88 Q 265 -35 351 -35 Q 428 -35 480 -77 Q 532 -120 532 -184 Q 532 -229 502 -254 Q 473 -280 399 -298 L 265 -332 Q 161 -359 114 -398 Q 59 -445 59 -515 Q 59 -580 117 -637 Q 175 -694 288 -694 Q 396 -694 477 -645 L 489 -681 L 525 -681 L 586 -500 L 554 -488 Q 451 -646 308 -646 Q 246 -646 203 -615 Q 161 -584 161 -539 Q 161 -499 192 -473 Q 224 -448 297 -430 L 422 -400 Q 535 -373 584 -330 Q 634 -287 634 -202 "/>
    </symbol>
    <symbol overflow="visible" id="f20g89">
      <path d="M 666 -650 Q 613 -639 586 -618 Q 559 -598 520 -539 L 355 -286 L 355 -144 Q 355 -83 368 -60 Q 382 -37 420 -34 L 461 -31 L 461 0 L 149 0 L 149 -31 L 190 -34 Q 228 -37 241 -60 Q 255 -83 255 -144 L 255 -284 L 88 -550 Q 55 -604 33 -622 Q 12 -640 -30 -650 L -30 -681 L 255 -681 L 255 -650 Q 195 -642 181 -626 Q 168 -611 191 -573 L 332 -345 L 474 -563 Q 488 -584 490 -599 Q 492 -615 482 -625 Q 472 -635 456 -640 Q 441 -646 417 -650 L 417 -681 L 666 -681 L 666 -650 "/>
    </symbol>
    <symbol overflow="visible" id="f20g100">
      <path d="M 591 0 L 423 0 L 423 -67 Q 352 9 250 9 Q 150 9 93 -66 Q 37 -142 37 -241 Q 37 -349 100 -421 Q 163 -494 257 -494 Q 346 -494 423 -441 L 423 -538 Q 423 -605 411 -625 Q 399 -646 358 -650 L 337 -652 L 337 -683 Q 416 -692 478 -717 L 518 -717 L 518 -115 Q 518 -75 531 -57 Q 544 -40 579 -32 L 591 -30 L 591 0 M 423 -118 L 423 -389 Q 383 -423 353 -436 Q 323 -449 287 -449 Q 243 -449 212 -427 Q 181 -406 166 -372 Q 151 -338 145 -306 Q 139 -275 139 -243 Q 139 -210 145 -177 Q 152 -145 166 -112 Q 181 -79 210 -59 Q 239 -39 279 -39 Q 358 -39 423 -118 "/>
    </symbol>
    <symbol overflow="visible" id="f20g87">
      <path d="M 984 -650 Q 936 -647 915 -626 Q 894 -606 870 -540 L 676 0 L 617 0 L 470 -437 L 324 0 L 265 0 L 77 -540 Q 54 -604 38 -620 Q 22 -637 -30 -650 L -30 -681 L 242 -681 L 242 -650 Q 195 -647 178 -630 Q 162 -613 176 -574 L 322 -134 L 441 -515 Q 422 -584 398 -611 Q 374 -639 324 -650 L 324 -681 L 598 -681 L 598 -650 Q 551 -644 533 -628 Q 515 -613 529 -581 L 675 -136 L 809 -552 Q 815 -572 816 -587 Q 817 -603 812 -613 Q 808 -623 801 -629 Q 795 -636 782 -640 Q 770 -644 759 -646 Q 749 -648 732 -650 L 732 -681 L 984 -681 L 984 -650 "/>
    </symbol>
    <symbol overflow="visible" id="f20g119">
      <path d="M 804 -455 Q 763 -444 742 -424 Q 722 -404 701 -354 L 561 0 L 491 0 L 391 -287 L 273 0 L 208 0 L 59 -387 Q 46 -421 28 -436 Q 10 -452 -19 -455 L -19 -485 L 217 -485 L 217 -455 Q 179 -452 166 -436 Q 153 -421 166 -387 L 272 -89 L 369 -345 L 352 -387 Q 338 -422 323 -434 Q 309 -447 273 -455 L 273 -485 L 511 -485 L 511 -455 Q 470 -450 458 -434 Q 446 -419 456 -387 L 560 -90 L 650 -354 Q 681 -449 583 -455 L 583 -485 L 804 -485 L 804 -455 "/>
    </symbol>
    <symbol overflow="visible" id="f20g98">
      <path d="M 582 -248 Q 582 -135 514 -63 Q 447 9 340 9 Q 292 9 253 -6 Q 214 -21 165 -58 L 141 0 L 85 0 L 85 -538 Q 85 -605 73 -625 Q 61 -646 20 -650 L -2 -652 L -2 -683 Q 77 -692 140 -717 L 180 -717 L 180 -422 Q 222 -461 262 -477 Q 302 -494 354 -494 Q 454 -494 518 -424 Q 582 -355 582 -248 M 480 -245 Q 480 -338 439 -392 Q 398 -446 328 -446 Q 285 -446 251 -428 Q 218 -411 180 -368 L 180 -95 Q 238 -39 317 -39 Q 391 -39 435 -95 Q 480 -151 480 -245 "/>
    </symbol>
    <symbol overflow="visible" id="f20g82">
      <path d="M 757 0 L 590 0 L 365 -321 L 221 -321 L 221 -144 Q 221 -83 234 -60 Q 248 -38 286 -34 L 322 -31 L 322 0 L 31 0 L 31 -31 L 56 -34 Q 95 -39 108 -61 Q 121 -83 121 -144 L 121 -537 Q 121 -598 108 -620 Q 95 -642 56 -647 L 31 -650 L 31 -681 L 438 -681 Q 546 -681 607 -635 Q 669 -589 669 -509 Q 669 -485 662 -462 Q 656 -440 639 -411 Q 622 -383 582 -361 Q 542 -339 484 -331 L 650 -96 Q 673 -66 696 -52 Q 720 -38 757 -31 L 757 0 M 561 -505 Q 561 -640 369 -640 Q 280 -640 250 -625 Q 221 -611 221 -581 L 221 -364 L 389 -364 Q 433 -364 465 -374 Q 498 -385 516 -400 Q 534 -415 544 -435 Q 555 -456 558 -472 Q 561 -488 561 -505 "/>
    </symbol>
    <symbol overflow="visible" id="f20g32">
      <path d=""/>
    </symbol>
    <symbol overflow="visible" id="f20g81">
      <path d="M 769 -337 Q 769 -195 675 -91 Q 717 -38 717 7 Q 717 87 627 138 Q 538 190 400 190 Q 281 190 192 150 Q 103 110 103 57 Q 103 37 119 24 Q 135 11 160 11 Q 188 11 204 27 Q 221 43 221 70 Q 222 91 229 100 Q 236 110 260 120 Q 310 145 399 145 Q 498 145 563 105 Q 629 66 629 7 Q 629 -13 614 -42 Q 521 13 407 13 Q 255 13 149 -88 Q 44 -189 44 -335 Q 44 -487 150 -590 Q 256 -694 411 -694 Q 567 -694 668 -593 Q 769 -492 769 -337 M 651 -341 Q 651 -478 585 -562 Q 519 -646 411 -646 Q 300 -646 231 -558 Q 162 -470 162 -330 Q 162 -80 369 -32 Q 333 -57 333 -86 Q 333 -122 372 -145 Q 412 -168 476 -168 Q 531 -168 612 -139 Q 651 -231 651 -341 M 571 -84 Q 519 -110 468 -110 Q 430 -110 405 -97 Q 381 -84 381 -65 Q 381 -50 398 -41 Q 416 -32 444 -32 Q 517 -32 571 -84 "/>
    </symbol>
    <symbol overflow="visible" id="f20g118">
      <path d="M 534 -453 Q 468 -438 430 -354 L 277 0 L 218 0 L 59 -385 Q 42 -423 26 -436 Q 11 -449 -23 -454 L -23 -485 L 221 -485 L 221 -455 Q 195 -452 183 -449 Q 172 -447 164 -439 Q 156 -432 157 -419 Q 158 -407 165 -385 L 278 -88 L 382 -362 Q 400 -401 388 -424 Q 376 -448 328 -455 L 328 -485 L 534 -485 L 534 -453 "/>
    </symbol>
    <symbol overflow="visible" id="f20g78">
      <path d="M 722 -650 L 697 -647 Q 658 -642 645 -620 Q 632 -598 632 -537 L 632 0 L 544 0 L 173 -606 L 173 -144 Q 173 -83 186 -60 Q 200 -38 238 -34 L 273 -31 L 273 0 L 26 0 L 26 -31 L 51 -34 Q 90 -39 103 -61 Q 116 -83 116 -144 L 116 -537 Q 116 -598 103 -620 Q 90 -642 51 -647 L 26 -650 L 26 -681 L 249 -681 L 575 -142 L 575 -537 Q 575 -598 561 -620 Q 548 -643 510 -647 L 475 -650 L 475 -681 L 722 -681 L 722 -650 "/>
    </symbol>
    <symbol overflow="visible" id="f20g84">
      <path d="M 656 -505 L 621 -493 Q 535 -643 401 -643 Q 376 -643 368 -634 Q 360 -625 360 -599 L 360 -144 Q 360 -83 373 -60 Q 387 -37 425 -34 L 464 -31 L 464 0 L 156 0 L 156 -31 L 195 -34 Q 233 -37 246 -60 Q 260 -83 260 -144 L 260 -603 Q 260 -626 250 -634 Q 241 -643 216 -643 Q 81 -643 -4 -493 L -37 -505 L 20 -681 L 600 -681 L 656 -505 "/>
    </symbol>
    <symbol overflow="visible" id="f20g86">
      <path d="M 725 -650 Q 668 -644 645 -624 Q 623 -604 592 -531 L 373 0 L 313 0 L 88 -546 Q 63 -605 43 -624 Q 24 -643 -20 -648 L -30 -650 L -30 -681 L 269 -681 L 269 -650 Q 248 -649 234 -647 Q 221 -646 208 -641 Q 195 -636 189 -627 Q 183 -618 183 -602 Q 184 -587 192 -565 L 368 -111 L 540 -547 Q 560 -594 541 -620 Q 522 -647 458 -650 L 458 -681 L 725 -681 L 725 -650 "/>
    </symbol>
    <symbol overflow="visible" id="f20g102">
      <path d="M 414 -677 Q 414 -660 400 -647 Q 386 -634 368 -634 Q 343 -634 322 -662 Q 299 -691 275 -691 Q 247 -691 224 -668 Q 202 -646 202 -591 L 202 -485 L 301 -485 L 301 -452 L 202 -452 L 202 -115 Q 202 -74 216 -55 Q 231 -36 264 -32 L 289 -30 L 289 0 L 20 0 L 20 -30 L 45 -32 Q 78 -36 92 -55 Q 107 -74 107 -115 L 107 -452 L 23 -452 L 23 -485 L 107 -485 L 107 -532 Q 107 -585 126 -624 Q 146 -664 172 -684 Q 198 -704 232 -716 Q 267 -729 288 -731 Q 310 -734 328 -734 Q 365 -734 389 -718 Q 414 -702 414 -677 "/>
    </symbol>
    <symbol overflow="visible" id="f20g121">
      <path d="M 549 -454 Q 509 -444 487 -424 Q 465 -405 447 -363 L 274 43 Q 263 70 256 85 Q 250 101 230 135 Q 210 169 191 188 Q 173 208 143 224 Q 113 241 80 241 Q 40 241 13 221 Q -14 202 -14 173 Q -14 153 1 138 Q 17 124 39 124 Q 54 124 64 130 Q 75 137 94 157 Q 113 176 127 176 Q 147 176 171 150 Q 195 125 211 85 L 236 27 L 57 -391 Q 43 -426 28 -437 Q 14 -449 -23 -454 L -23 -485 L 210 -485 L 210 -455 Q 140 -447 160 -398 L 285 -94 L 378 -330 Q 393 -368 397 -391 Q 401 -414 392 -426 Q 383 -439 370 -444 Q 357 -450 329 -455 L 329 -485 L 549 -485 L 549 -454 "/>
    </symbol>
    <symbol overflow="visible" id="f20g85">
      <path d="M 754 -650 L 729 -647 Q 690 -642 677 -620 Q 664 -598 664 -537 L 664 -204 Q 664 -98 603 -42 Q 543 13 392 13 Q 337 13 291 3 Q 245 -7 203 -29 Q 162 -52 138 -96 Q 115 -140 115 -202 L 115 -537 Q 115 -598 102 -620 Q 89 -642 50 -647 L 25 -650 L 25 -681 L 317 -681 L 317 -650 L 280 -647 Q 242 -644 228 -621 Q 215 -598 215 -537 L 215 -270 Q 215 -222 217 -192 Q 220 -163 231 -129 Q 242 -96 262 -77 Q 282 -59 318 -47 Q 354 -35 407 -35 Q 449 -35 481 -42 Q 513 -50 534 -60 Q 555 -71 569 -92 Q 584 -113 591 -128 Q 599 -144 602 -174 Q 606 -204 606 -221 Q 607 -238 607 -272 L 607 -537 Q 607 -598 593 -620 Q 580 -643 542 -647 L 509 -650 L 509 -681 L 754 -681 L 754 -650 "/>
    </symbol>
    <symbol overflow="visible" id="f20g74">
      <path d="M 567 -650 L 542 -647 Q 503 -642 490 -620 Q 477 -598 477 -537 L 477 -260 Q 477 -227 476 -208 Q 476 -189 471 -156 Q 466 -124 457 -104 Q 448 -84 429 -59 Q 411 -34 385 -20 Q 360 -7 319 3 Q 279 13 228 13 Q 111 13 44 -48 Q -23 -110 -23 -186 Q -23 -225 -1 -250 Q 21 -275 55 -275 Q 80 -275 95 -260 Q 110 -246 110 -221 Q 110 -195 85 -173 Q 65 -154 65 -133 Q 65 -93 108 -64 Q 151 -35 209 -35 Q 249 -35 278 -44 Q 308 -53 326 -73 Q 344 -94 354 -114 Q 365 -135 370 -172 Q 375 -209 376 -236 Q 377 -264 377 -311 L 377 -537 Q 377 -598 364 -620 Q 351 -642 312 -647 L 287 -650 L 287 -681 L 567 -681 L 567 -650 "/>
    </symbol>
  </defs>
  <a xlink:href="http://www.google.com/search?q=options" target="_blank">
    <t:tag>options</t:tag>
    <g transform="matrix(0.0230337,0,0,0.0230337,35.2629,31.482)" fill="#E0E0E0">
      <rect x="-121.78" y="-857.78" width="3867.56" height="1239.56"/>
      <use xlink:href="#f20g111" x="0" y="0"/>
      <use xlink:href="#f20g112" x="560" y="0"/>
      <use xlink:href="#f20g116" x="1180" y="0"/>
      <use xlink:href="#f20g105" x="1560" y="0"/>
      <use xlink:href="#f20g111" x="1860" y="0"/>
      <use xlink:href="#f20g110" x="2420" y="0"/>
      <use xlink:href="#f20g115" x="3080" y="0"/>
    </g>
  </a>
  <a xlink:href="http://www.google.com/search?q=call" target="_blank">
    <t:tag>call</t:tag>
    <g transform="matrix(0.0208333,0,0,0.0208333,80.5833,18.3333)" fill="#CCCCCC">
      <rect x="-94.72" y="-862.72" width="1909.44" height="1021.44"/>
      <use xlink:href="#f20g99" x="0" y="0"/>
      <use xlink:href="#f20g97" x="520" y="0"/>
      <use xlink:href="#f20g108" x="1100" y="0"/>
      <use xlink:href="#f20g108" x="1400" y="0"/>
    </g>
  </a>
  <a xlink:href="http://www.google.com/search?q=IBM" target="_blank">
    <t:tag>IBM</t:tag>
    <g transform="matrix(0.0136778,0,0,0.0136778,9,29.3146)" fill="#E0E0E0">
      <rect x="-116.16" y="-820.16" width="2206.32" height="936.32"/>
      <use xlink:href="#f20g73" x="0" y="0"/>
      <use xlink:href="#f20g66" x="340" y="0"/>
      <use xlink:href="#f20g77" x="1080" y="0"/>
    </g>
  </a>
  <a xlink:href="http://www.google.com/search?q=XLF" target="_blank">
    <t:tag>XLF</t:tag>
    <g transform="matrix(0.00938735,0,0,0.00938735,118.3,26.3043)" fill="#C2C2C2">
      <rect x="-148.16" y="-820.16" width="2256.32" height="936.32"/>
      <use xlink:href="#f20g88" x="0" y="0"/>
      <use xlink:href="#f20g76" x="720" y="0"/>
      <use xlink:href="#f20g70" x="1320" y="0"/>
    </g>
  </a>
  <a xlink:href="http://www.google.com/search?q=Chicago" target="_blank">
    <t:tag>Chicago</t:tag>
    <g transform="matrix(0.00511771,0,0,0.00511771,66.9795,36.7666)" fill="#999999">
      <rect x="-129.205" y="-897.205" width="4174.41" height="1299.41"/>
      <use xlink:href="#f20g67" x="0" y="0"/>
      <use xlink:href="#f20g104" x="740" y="0"/>
      <use xlink:href="#f20g105" x="1400" y="0"/>
      <use xlink:href="#f20g99" x="1700" y="0"/>
      <use xlink:href="#f20g97" x="2220" y="0"/>
      <use xlink:href="#f20g103" x="2800" y="0"/>
      <use xlink:href="#f20g111" x="3340" y="0"/>
    </g>
  </a>
  <a xlink:href="http://www.google.com/search?q=AAPL" target="_blank">
    <t:tag>AAPL</t:tag>
    <g transform="matrix(0.00710227,0,0,0.00710227,89.4233,37)" fill="#CDAF7E">
      <rect x="-180.16" y="-820.16" width="2916.32" height="936.32"/>
      <use xlink:href="#f20g65" x="0" y="0"/>
      <use xlink:href="#f20g65" x="680" y="0"/>
      <use xlink:href="#f20g80" x="1360" y="0"/>
      <use xlink:href="#f20g76" x="1980" y="0"/>
    </g>
  </a>
  <a xlink:href="http://www.google.com/search?q=GLD" target="_blank">
    <t:tag>GLD</t:tag>
    <g transform="matrix(0.00815217,0,0,0.00815217,46.0326,17.7391)" fill="#C2C2C2">
      <rect x="-89.44" y="-825.44" width="2378.88" height="978.88"/>
      <use xlink:href="#f20g71" x="0" y="0"/>
      <use xlink:href="#f20g76" x="800" y="0"/>
      <use xlink:href="#f20g68" x="1400" y="0"/>
    </g>
  </a>
  <a xlink:href="http://www.google.com/search?q=EEM" target="_blank">
    <t:tag>EEM</t:tag>
    <g transform="matrix(0.00710227,0,0,0.00710227,63.7116,13)" fill="#CDAF7E">
      <rect x="-116.16" y="-820.16" width="2566.32" height="936.32"/>
      <use xlink:href="#f20g69" x="0" y="0"/>
      <use xlink:href="#f20g69" x="720" y="0"/>
      <use xlink:href="#f20g77" x="1440" y="0"/>
    </g>
  </a>
  <a xlink:href="http://www.google.com/search?q=put" target="_blank">
    <t:tag>put</t:tag>
    <g transform="matrix(0.00777778,0,0,0.00777778,88.8267,5.22667)" fill="#999999">
      <rect x="-148.5" y="-820.5" width="2013" height="1197"/>
      <use xlink:href="#f20g112" x="0" y="0"/>
      <use xlink:href="#f20g117" x="620" y="0"/>
      <use xlink:href="#f20g116" x="1300" y="0"/>
    </g>
  </a>
  <a xlink:href="http://www.google.com/search?q=CBOE" target="_blank">
    <t:tag>CBOE</t:tag>
    <g transform="matrix(0.00543478,0,0,0.00543478,24.3016,18.8261)" fill="#CCCCCC">
      <rect x="-89.44" y="-825.44" width="3195.88" height="978.88"/>
      <use xlink:href="#f20g67" x="0" y="0"/>
      <use xlink:href="#f20g66" x="740" y="0"/>
      <use xlink:href="#f20g79" x="1480" y="0"/>
      <use xlink:href="#f20g69" x="2280" y="0"/>
    </g>
  </a>
  <a xlink:href="http://www.google.com/search?q=strangle" target="_blank">
    <t:tag>strangle</t:tag>
    <g transform="matrix(0.00410256,0,0,0.00410256,115.869,16.0154)" fill="#CDAF7E">
      <rect x="-129.205" y="-897.205" width="4222.41" height="1299.41"/>
      <use xlink:href="#f20g115" x="0" y="0"/>
      <use xlink:href="#f20g116" x="520" y="0"/>
      <use xlink:href="#f20g114" x="900" y="0"/>
      <use xlink:href="#f20g97" x="1340" y="0"/>
      <use xlink:href="#f20g110" x="1920" y="0"/>
      <use xlink:href="#f20g103" x="2580" y="0"/>
      <use xlink:href="#f20g108" x="3120" y="0"/>
      <use xlink:href="#f20g101" x="3420" y="0"/>
    </g>
  </a>
  <a xlink:href="http://www.google.com/search?q=Black" target="_blank">
    <t:tag>Black</t:tag>
    <g transform="matrix(0.00431655,0,0,0.00431655,36,36.5194)" fill="#CDAF7E">
      <rect x="-126.72" y="-862.72" width="3033.44" height="1021.44"/>
      <use xlink:href="#f20g66" x="0" y="0"/>
      <use xlink:href="#f20g108" x="740" y="0"/>
      <use xlink:href="#f20g97" x="1040" y="0"/>
      <use xlink:href="#f20g99" x="1620" y="0"/>
      <use xlink:href="#f20g107" x="2140" y="0"/>
    </g>
  </a>
  <a xlink:href="http://www.google.com/search?q=SPY" target="_blank">
    <t:tag>SPY</t:tag>
    <g transform="matrix(0.00563525,0,0,0.00563525,56,37.3934)" fill="#999999">
      <rect x="-121.44" y="-825.44" width="2194.88" height="978.88"/>
      <use xlink:href="#f20g83" x="0" y="0"/>
      <use xlink:href="#f20g80" x="660" y="0"/>
      <use xlink:href="#f20g89" x="1280" y="0"/>
    </g>
  </a>
  <a xlink:href="http://www.google.com/search?q=Singapore" target="_blank">
    <t:tag>Singapore</t:tag>
    <g transform="matrix(0.0031746,0,0,0.0031746,67.2667,7.23492)" fill="#C2C2C2">
      <rect x="-155.925" y="-859.925" width="5183.85" height="1256.85"/>
      <use xlink:href="#f20g83" x="0" y="0"/>
      <use xlink:href="#f20g105" x="660" y="0"/>
      <use xlink:href="#f20g110" x="960" y="0"/>
      <use xlink:href="#f20g103" x="1620" y="0"/>
      <use xlink:href="#f20g97" x="2160" y="0"/>
      <use xlink:href="#f20g112" x="2740" y="0"/>
      <use xlink:href="#f20g111" x="3360" y="0"/>
      <use xlink:href="#f20g114" x="3920" y="0"/>
      <use xlink:href="#f20g101" x="4360" y="0"/>
    </g>
  </a>
  <a xlink:href="http://www.google.com/search?q=condor" target="_blank">
    <t:tag>condor</t:tag>
    <g transform="matrix(0.00389688,0,0,0.00389688,114.875,12.8717)" fill="#C2C2C2">
      <rect x="-94.72" y="-862.72" width="3589.44" height="1021.44"/>
      <use xlink:href="#f20g99" x="0" y="0"/>
      <use xlink:href="#f20g111" x="520" y="0"/>
      <use xlink:href="#f20g110" x="1080" y="0"/>
      <use xlink:href="#f20g100" x="1740" y="0"/>
      <use xlink:href="#f20g111" x="2360" y="0"/>
      <use xlink:href="#f20g114" x="2920" y="0"/>
    </g>
  </a>
  <a xlink:href="http://www.google.com/search?q=IWM" target="_blank">
    <t:tag>IWM</t:tag>
    <g transform="matrix(0.00501367,0,0,0.00501367,118,33.2648)" fill="#CCCCCC">
      <rect x="-116.16" y="-820.16" width="2426.32" height="936.32"/>
      <use xlink:href="#f20g73" x="0" y="0"/>
      <use xlink:href="#f20g87" x="340" y="0"/>
      <use xlink:href="#f20g77" x="1300" y="0"/>
    </g>
  </a>
  <a xlink:href="http://www.google.com/search?q=Merton" target="_blank">
    <t:tag>Merton</t:tag>
    <g transform="matrix(0.00315006,0,0,0.00315006,137,23.0584)" fill="#999999">
      <rect x="-121.44" y="-825.44" width="3734.88" height="978.88"/>
      <use xlink:href="#f20g77" x="0" y="0"/>
      <use xlink:href="#f20g101" x="920" y="0"/>
      <use xlink:href="#f20g114" x="1440" y="0"/>
      <use xlink:href="#f20g116" x="1880" y="0"/>
      <use xlink:href="#f20g111" x="2260" y="0"/>
      <use xlink:href="#f20g110" x="2820" y="0"/>
    </g>
  </a>
  <a xlink:href="http://www.google.com/search?q=Schwab" target="_blank">
    <t:tag>Schwab</t:tag>
    <g transform="matrix(0.00260417,0,0,0.00260417,13.0755,18.9167)" fill="#CCCCCC">
      <rect x="-126.72" y="-862.72" width="4035.44" height="1021.44"/>
      <use xlink:href="#f20g83" x="0" y="0"/>
      <use xlink:href="#f20g99" x="660" y="0"/>
      <use xlink:href="#f20g104" x="1180" y="0"/>
      <use xlink:href="#f20g119" x="1840" y="0"/>
      <use xlink:href="#f20g97" x="2620" y="0"/>
      <use xlink:href="#f20g98" x="3200" y="0"/>
    </g>
  </a>
  <a xlink:href="http://www.google.com/search?q=ORCL" target="_blank">
    <t:tag>ORCL</t:tag>
    <g transform="matrix(0.00313808,0,0,0.00313808,26.8996,33.0544)" fill="#C2C2C2">
      <rect x="-89.44" y="-825.44" width="3110.88" height="978.88"/>
      <use xlink:href="#f20g79" x="0" y="0"/>
      <use xlink:href="#f20g82" x="800" y="0"/>
      <use xlink:href="#f20g67" x="1520" y="0"/>
      <use xlink:href="#f20g76" x="2260" y="0"/>
    </g>
  </a>
  <a xlink:href="http://www.google.com/search?q=iron+condor" target="_blank">
    <t:tag>iron condor</t:tag>
    <g transform="matrix(0.00260417,0,0,0.00260417,65.1458,14.9167)" fill="#999999">
      <rect x="-126.72" y="-862.72" width="5901.44" height="1021.44"/>
      <use xlink:href="#f20g105" x="0" y="0"/>
      <use xlink:href="#f20g114" x="300" y="0"/>
      <use xlink:href="#f20g111" x="740" y="0"/>
      <use xlink:href="#f20g110" x="1300" y="0"/>
      <use xlink:href="#f20g32" x="1960" y="0"/>
      <use xlink:href="#f20g99" x="2280" y="0"/>
      <use xlink:href="#f20g111" x="2800" y="0"/>
      <use xlink:href="#f20g110" x="3360" y="0"/>
      <use xlink:href="#f20g100" x="4020" y="0"/>
      <use xlink:href="#f20g111" x="4640" y="0"/>
      <use xlink:href="#f20g114" x="5200" y="0"/>
    </g>
  </a>
  <a xlink:href="http://www.google.com/search?q=QQQ" target="_blank">
    <t:tag>QQQ</t:tag>
    <g transform="matrix(0.0033557,0,0,0.0033557,1.35235,26.3624)" fill="#C2C2C2">
      <rect x="-115.51" y="-851.51" width="2703.02" height="1189.02"/>
      <use xlink:href="#f20g81" x="0" y="0"/>
      <use xlink:href="#f20g81" x="820" y="0"/>
      <use xlink:href="#f20g81" x="1640" y="0"/>
    </g>
  </a>
  <a xlink:href="http://www.google.com/search?q=covered+call" target="_blank">
    <t:tag>covered call</t:tag>
    <g transform="matrix(0.00246653,0,0,0.00246653,12.9211,31.8682)" fill="#E0E0E0">
      <rect x="-94.72" y="-862.72" width="5929.44" height="1021.44"/>
      <use xlink:href="#f20g99" x="0" y="0"/>
      <use xlink:href="#f20g111" x="520" y="0"/>
      <use xlink:href="#f20g118" x="1080" y="0"/>
      <use xlink:href="#f20g101" x="1600" y="0"/>
      <use xlink:href="#f20g114" x="2120" y="0"/>
      <use xlink:href="#f20g101" x="2560" y="0"/>
      <use xlink:href="#f20g100" x="3080" y="0"/>
      <use xlink:href="#f20g32" x="3700" y="0"/>
      <use xlink:href="#f20g99" x="4020" y="0"/>
      <use xlink:href="#f20g97" x="4540" y="0"/>
      <use xlink:href="#f20g108" x="5120" y="0"/>
      <use xlink:href="#f20g108" x="5420" y="0"/>
    </g>
  </a>
  <a xlink:href="http://www.google.com/search?q=FSLR" target="_blank">
    <t:tag>FSLR</t:tag>
    <g transform="matrix(0.00337331,0,0,0.00337331,109,36.1334)" fill="#CCCCCC">
      <rect x="-121.44" y="-825.44" width="2910.88" height="978.88"/>
      <use xlink:href="#f20g70" x="0" y="0"/>
      <use xlink:href="#f20g83" x="640" y="0"/>
      <use xlink:href="#f20g76" x="1300" y="0"/>
      <use xlink:href="#f20g82" x="1900" y="0"/>
    </g>
  </a>
  <a xlink:href="http://www.google.com/search?q=San+Fransciso" target="_blank">
    <t:tag>San Fransciso</t:tag>
    <g transform="matrix(0.00172811,0,0,0.00172811,77,4.58065)" fill="#CDAF7E">
      <rect x="-121.44" y="-825.44" width="7186.88" height="978.88"/>
      <use xlink:href="#f20g83" x="0" y="0"/>
      <use xlink:href="#f20g97" x="660" y="0"/>
      <use xlink:href="#f20g110" x="1240" y="0"/>
      <use xlink:href="#f20g32" x="1900" y="0"/>
      <use xlink:href="#f20g70" x="2220" y="0"/>
      <use xlink:href="#f20g114" x="2860" y="0"/>
      <use xlink:href="#f20g97" x="3300" y="0"/>
      <use xlink:href="#f20g110" x="3880" y="0"/>
      <use xlink:href="#f20g115" x="4540" y="0"/>
      <use xlink:href="#f20g99" x="5060" y="0"/>
      <use xlink:href="#f20g105" x="5580" y="0"/>
      <use xlink:href="#f20g115" x="5880" y="0"/>
      <use xlink:href="#f20g111" x="6400" y="0"/>
    </g>
  </a>
  <a xlink:href="http://www.google.com/search?q=INTC" target="_blank">
    <t:tag>INTC</t:tag>
    <g transform="matrix(0.00291181,0,0,0.00291181,115,8.47837)" fill="#E0E0E0">
      <rect x="-121.44" y="-825.44" width="2646.88" height="978.88"/>
      <use xlink:href="#f20g73" x="0" y="0"/>
      <use xlink:href="#f20g78" x="340" y="0"/>
      <use xlink:href="#f20g84" x="1080" y="0"/>
      <use xlink:href="#f20g67" x="1700" y="0"/>
    </g>
  </a>
  <a xlink:href="http://www.google.com/search?q=Scholes" target="_blank">
    <t:tag>Scholes</t:tag>
    <g transform="matrix(0.00260417,0,0,0.00260417,54.1406,11.9167)" fill="#CDAF7E">
      <rect x="-126.72" y="-862.72" width="3985.44" height="1021.44"/>
      <use xlink:href="#f20g83" x="0" y="0"/>
      <use xlink:href="#f20g99" x="660" y="0"/>
      <use xlink:href="#f20g104" x="1180" y="0"/>
      <use xlink:href="#f20g111" x="1840" y="0"/>
      <use xlink:href="#f20g108" x="2400" y="0"/>
      <use xlink:href="#f20g101" x="2700" y="0"/>
      <use xlink:href="#f20g115" x="3220" y="0"/>
    </g>
  </a>
  <a xlink:href="http://www.google.com/search?q=SLV" target="_blank">
    <t:tag>SLV</t:tag>
    <g transform="matrix(0.00271739,0,0,0.00271739,45.288,19.913)" fill="#CCCCCC">
      <rect x="-121.44" y="-825.44" width="2238.88" height="978.88"/>
      <use xlink:href="#f20g83" x="0" y="0"/>
      <use xlink:href="#f20g76" x="660" y="0"/>
      <use xlink:href="#f20g86" x="1260" y="0"/>
    </g>
  </a>
  <a xlink:href="http://www.google.com/search?q=ICE" target="_blank">
    <t:tag>ICE</t:tag>
    <g transform="matrix(0.00280112,0,0,0.00280112,77,19.4412)" fill="#999999">
      <rect x="-121.44" y="-825.44" width="2027.88" height="978.88"/>
      <use xlink:href="#f20g73" x="0" y="0"/>
      <use xlink:href="#f20g67" x="340" y="0"/>
      <use xlink:href="#f20g69" x="1080" y="0"/>
    </g>
  </a>
  <a xlink:href="http://www.google.com/search?q=NASDAQ" target="_blank">
    <t:tag>NASDAQ</t:tag>
    <g transform="matrix(0.00223714,0,0,0.00223714,103.123,1.57494)" fill="#E0E0E0">
      <rect x="-147.51" y="-851.51" width="4655.02" height="1189.02"/>
      <use xlink:href="#f20g78" x="0" y="0"/>
      <use xlink:href="#f20g65" x="740" y="0"/>
      <use xlink:href="#f20g83" x="1420" y="0"/>
      <use xlink:href="#f20g68" x="2080" y="0"/>
      <use xlink:href="#f20g65" x="2880" y="0"/>
      <use xlink:href="#f20g81" x="3560" y="0"/>
    </g>
  </a>
  <a xlink:href="http://www.google.com/search?q=VXX" target="_blank">
    <t:tag>VXX</t:tag>
    <g transform="matrix(0.00284091,0,0,0.00284091,2.95597,24)" fill="#CDAF7E">
      <rect x="-148.16" y="-820.16" width="2439.32" height="936.32"/>
      <use xlink:href="#f20g86" x="0" y="0"/>
      <use xlink:href="#f20g88" x="700" y="0"/>
      <use xlink:href="#f20g88" x="1420" y="0"/>
    </g>
  </a>
  <a xlink:href="http://www.google.com/search?q=butterfly" target="_blank">
    <t:tag>butterfly</t:tag>
    <g transform="matrix(0.00201613,0,0,0.00201613,116.809,18.4839)" fill="#999999">
      <rect x="-195.68" y="-899.68" width="4548.36" height="1319.36"/>
      <use xlink:href="#f20g98" x="0" y="0"/>
      <use xlink:href="#f20g117" x="620" y="0"/>
      <use xlink:href="#f20g116" x="1300" y="0"/>
      <use xlink:href="#f20g116" x="1680" y="0"/>
      <use xlink:href="#f20g101" x="2060" y="0"/>
      <use xlink:href="#f20g114" x="2580" y="0"/>
      <use xlink:href="#f20g102" x="3020" y="0"/>
      <use xlink:href="#f20g108" x="3340" y="0"/>
      <use xlink:href="#f20g121" x="3640" y="0"/>
    </g>
  </a>
  <a xlink:href="http://www.google.com/search?q=Uhlenbeck" target="_blank">
    <t:tag>Uhlenbeck</t:tag>
    <g transform="matrix(0.00191571,0,0,0.00191571,118,28.6743)" fill="#999999">
      <rect x="-126.72" y="-862.72" width="5473.44" height="1021.44"/>
      <use xlink:href="#f20g85" x="0" y="0"/>
      <use xlink:href="#f20g104" x="780" y="0"/>
      <use xlink:href="#f20g108" x="1440" y="0"/>
      <use xlink:href="#f20g101" x="1740" y="0"/>
      <use xlink:href="#f20g110" x="2260" y="0"/>
      <use xlink:href="#f20g98" x="2920" y="0"/>
      <use xlink:href="#f20g101" x="3540" y="0"/>
      <use xlink:href="#f20g99" x="4060" y="0"/>
      <use xlink:href="#f20g107" x="4580" y="0"/>
    </g>
  </a>
  <a xlink:href="http://www.google.com/search?q=XOM" target="_blank">
    <t:tag>XOM</t:tag>
    <g transform="matrix(0.00271739,0,0,0.00271739,84.7636,14.913)" fill="#CDAF7E">
      <rect x="-153.44" y="-825.44" width="2688.88" height="978.88"/>
      <use xlink:href="#f20g88" x="0" y="0"/>
      <use xlink:href="#f20g79" x="720" y="0"/>
      <use xlink:href="#f20g77" x="1520" y="0"/>
    </g>
  </a>
  <a xlink:href="http://www.google.com/search?q=J+P+Morgan" target="_blank">
    <t:tag>J P Morgan</t:tag>
    <g transform="matrix(0.0010582,0,0,0.0010582,90.5688,0.744974)" fill="#E0E0E0">
      <rect x="-187.925" y="-859.925" width="5915.85" height="1256.85"/>
      <use xlink:href="#f20g74" x="0" y="0"/>
      <use xlink:href="#f20g32" x="600" y="0"/>
      <use xlink:href="#f20g80" x="920" y="0"/>
      <use xlink:href="#f20g32" x="1540" y="0"/>
      <use xlink:href="#f20g77" x="1860" y="0"/>
      <use xlink:href="#f20g111" x="2780" y="0"/>
      <use xlink:href="#f20g114" x="3340" y="0"/>
      <use xlink:href="#f20g103" x="3780" y="0"/>
      <use xlink:href="#f20g97" x="4320" y="0"/>
      <use xlink:href="#f20g110" x="4900" y="0"/>
    </g>
  </a>
  <a xlink:href="http://www.google.com/search?q=NYSE" target="_blank">
    <t:tag>NYSE</t:tag>
    <g transform="matrix(0.00182149,0,0,0.00182149,115,5.11202)" fill="#E0E0E0">
      <rect x="-121.44" y="-825.44" width="2987.88" height="978.88"/>
      <use xlink:href="#f20g78" x="0" y="0"/>
      <use xlink:href="#f20g89" x="740" y="0"/>
      <use xlink:href="#f20g83" x="1380" y="0"/>
      <use xlink:href="#f20g69" x="2040" y="0"/>
    </g>
  </a>
  <a xlink:href="http://www.google.com/search?q=Merrill" target="_blank">
    <t:tag>Merrill</t:tag>
    <g transform="matrix(0.0015586,0,0,0.0015586,19,16.5666)" fill="#999999">
      <rect x="-122.925" y="-858.925" width="3453.85" height="990.85"/>
      <use xlink:href="#f20g77" x="0" y="0"/>
      <use xlink:href="#f20g101" x="920" y="0"/>
      <use xlink:href="#f20g114" x="1440" y="0"/>
      <use xlink:href="#f20g114" x="1880" y="0"/>
      <use xlink:href="#f20g105" x="2320" y="0"/>
      <use xlink:href="#f20g108" x="2620" y="0"/>
      <use xlink:href="#f20g108" x="2920" y="0"/>
    </g>
  </a>
  <a xlink:href="http://www.google.com/search?q=optionsXpress" target="_blank">
    <t:tag>optionsXpress</t:tag>
    <g transform="matrix(0.00107296,0,0,0.00107296,64.7639,15.7554)" fill="#E0E0E0">
      <rect x="-121.78" y="-857.78" width="7207.56" height="1239.56"/>
      <use xlink:href="#f20g111" x="0" y="0"/>
      <use xlink:href="#f20g112" x="560" y="0"/>
      <use xlink:href="#f20g116" x="1180" y="0"/>
      <use xlink:href="#f20g105" x="1560" y="0"/>
      <use xlink:href="#f20g111" x="1860" y="0"/>
      <use xlink:href="#f20g110" x="2420" y="0"/>
      <use xlink:href="#f20g115" x="3080" y="0"/>
      <use xlink:href="#f20g88" x="3600" y="0"/>
      <use xlink:href="#f20g112" x="4320" y="0"/>
      <use xlink:href="#f20g114" x="4940" y="0"/>
      <use xlink:href="#f20g101" x="5380" y="0"/>
      <use xlink:href="#f20g115" x="5900" y="0"/>
      <use xlink:href="#f20g115" x="6420" y="0"/>
    </g>
  </a>
  <a xlink:href="http://www.google.com/search?q=vertical+spread" target="_blank">
    <t:tag>vertical spread</t:tag>
    <g transform="matrix(0.00103734,0,0,0.00103734,53.7988,18.7635)" fill="#E0E0E0">
      <rect x="-191.06" y="-895.06" width="7518.12" height="1282.12"/>
      <use xlink:href="#f20g118" x="0" y="0"/>
      <use xlink:href="#f20g101" x="520" y="0"/>
      <use xlink:href="#f20g114" x="1040" y="0"/>
      <use xlink:href="#f20g116" x="1480" y="0"/>
      <use xlink:href="#f20g105" x="1860" y="0"/>
      <use xlink:href="#f20g99" x="2160" y="0"/>
      <use xlink:href="#f20g97" x="2680" y="0"/>
      <use xlink:href="#f20g108" x="3260" y="0"/>
      <use xlink:href="#f20g32" x="3560" y="0"/>
      <use xlink:href="#f20g115" x="3880" y="0"/>
      <use xlink:href="#f20g112" x="4400" y="0"/>
      <use xlink:href="#f20g114" x="5020" y="0"/>
      <use xlink:href="#f20g101" x="5460" y="0"/>
      <use xlink:href="#f20g97" x="5980" y="0"/>
      <use xlink:href="#f20g100" x="6560" y="0"/>
    </g>
  </a>
  <a xlink:href="http://www.google.com/search?q=CSCO" target="_blank">
    <t:tag>CSCO</t:tag>
    <g transform="matrix(0.00174459,0,0,0.00174459,38.9442,26.5862)" fill="#999999">
      <rect x="-89.44" y="-825.44" width="3108.88" height="978.88"/>
      <use xlink:href="#f20g67" x="0" y="0"/>
      <use xlink:href="#f20g83" x="740" y="0"/>
      <use xlink:href="#f20g67" x="1400" y="0"/>
      <use xlink:href="#f20g79" x="2140" y="0"/>
    </g>
  </a>
  <a xlink:href="http://www.google.com/search?q=Ornstein" target="_blank">
    <t:tag>Ornstein</t:tag>
    <g transform="matrix(0.0013587,0,0,0.0013587,117.062,9.95652)" fill="#E0E0E0">
      <rect x="-89.44" y="-825.44" width="4502.88" height="978.88"/>
      <use xlink:href="#f20g79" x="0" y="0"/>
      <use xlink:href="#f20g114" x="800" y="0"/>
      <use xlink:href="#f20g110" x="1240" y="0"/>
      <use xlink:href="#f20g115" x="1900" y="0"/>
      <use xlink:href="#f20g116" x="2420" y="0"/>
      <use xlink:href="#f20g101" x="2800" y="0"/>
      <use xlink:href="#f20g105" x="3320" y="0"/>
      <use xlink:href="#f20g110" x="3620" y="0"/>
    </g>
  </a>
  <a xlink:href="http://www.google.com/search?q=straddle" target="_blank">
    <t:tag>straddle</t:tag>
    <g transform="matrix(0.00130208,0,0,0.00130208,59.8932,32.9583)" fill="#E0E0E0">
      <rect x="-94.72" y="-862.72" width="4193.44" height="1021.44"/>
      <use xlink:href="#f20g115" x="0" y="0"/>
      <use xlink:href="#f20g116" x="520" y="0"/>
      <use xlink:href="#f20g114" x="900" y="0"/>
      <use xlink:href="#f20g97" x="1340" y="0"/>
      <use xlink:href="#f20g100" x="1920" y="0"/>
      <use xlink:href="#f20g100" x="2540" y="0"/>
      <use xlink:href="#f20g108" x="3160" y="0"/>
      <use xlink:href="#f20g101" x="3460" y="0"/>
    </g>
  </a>
  <a xlink:href="http://www.google.com/search?q=New+York" target="_blank">
    <t:tag>New York</t:tag>
    <g transform="matrix(0.00130208,0,0,0.00130208,139.479,19.9583)" fill="#C2C2C2">
      <rect x="-126.72" y="-862.72" width="4893.44" height="1021.44"/>
      <use xlink:href="#f20g78" x="0" y="0"/>
      <use xlink:href="#f20g101" x="740" y="0"/>
      <use xlink:href="#f20g119" x="1260" y="0"/>
      <use xlink:href="#f20g32" x="2040" y="0"/>
      <use xlink:href="#f20g89" x="2360" y="0"/>
      <use xlink:href="#f20g111" x="3000" y="0"/>
      <use xlink:href="#f20g114" x="3560" y="0"/>
      <use xlink:href="#f20g107" x="4000" y="0"/>
    </g>
  </a>
  <a xlink:href="http://www.google.com/search?q=London" target="_blank">
    <t:tag>London</t:tag>
    <g transform="matrix(0.00136166,0,0,0.00136166,58,9.4793)" fill="#999999">
      <rect x="-126.72" y="-862.72" width="3925.44" height="1021.44"/>
      <use xlink:href="#f20g76" x="0" y="0"/>
      <use xlink:href="#f20g111" x="600" y="0"/>
      <use xlink:href="#f20g110" x="1160" y="0"/>
      <use xlink:href="#f20g100" x="1820" y="0"/>
      <use xlink:href="#f20g111" x="2440" y="0"/>
      <use xlink:href="#f20g110" x="3000" y="0"/>
    </g>
  </a>
  <a xlink:href="http://www.google.com/search?q=Palo+Alto" target="_blank">
    <t:tag>Palo Alto</t:tag>
    <g transform="matrix(0.00130208,0,0,0.00130208,70.7109,37.9583)" fill="#CDAF7E">
      <rect x="-126.72" y="-862.72" width="4537.44" height="1021.44"/>
      <use xlink:href="#f20g80" x="0" y="0"/>
      <use xlink:href="#f20g97" x="620" y="0"/>
      <use xlink:href="#f20g108" x="1200" y="0"/>
      <use xlink:href="#f20g111" x="1500" y="0"/>
      <use xlink:href="#f20g32" x="2060" y="0"/>
      <use xlink:href="#f20g65" x="2380" y="0"/>
      <use xlink:href="#f20g108" x="3060" y="0"/>
      <use xlink:href="#f20g116" x="3360" y="0"/>
      <use xlink:href="#f20g111" x="3740" y="0"/>
    </g>
  </a>
  <a xlink:href="http://www.google.com/search?q=BATS" target="_blank">
    <t:tag>BATS</t:tag>
    <g transform="matrix(0.00186567,0,0,0.00186567,83,6.62687)" fill="#E0E0E0">
      <rect x="-121.44" y="-825.44" width="2922.88" height="978.88"/>
      <use xlink:href="#f20g66" x="0" y="0"/>
      <use xlink:href="#f20g65" x="740" y="0"/>
      <use xlink:href="#f20g84" x="1420" y="0"/>
      <use xlink:href="#f20g83" x="2040" y="0"/>
    </g>
  </a>
  <a xlink:href="http://www.google.com/search?q=GOOG" target="_blank">
    <t:tag>GOOG</t:tag>
    <g transform="matrix(0.00157828,0,0,0.00157828,81.9495,26.5303)" fill="#CDAF7E">
      <rect x="-89.44" y="-825.44" width="3410.88" height="978.88"/>
      <use xlink:href="#f20g71" x="0" y="0"/>
      <use xlink:href="#f20g79" x="800" y="0"/>
      <use xlink:href="#f20g79" x="1600" y="0"/>
      <use xlink:href="#f20g71" x="2400" y="0"/>
    </g>
  </a>
</svg>